# xmcd
#
# Track frame offsets:
#	150
#	23720
#	78592
#	125543
#
# Disc length: 2025 seconds
#
# Revision: 1
# Processed by: cddbd v1.5.2PL0 Copyright (c) Steve Scherf et al.
# Submitted via: audiograbber 1.83.01
#
DISCID=2907e704
DTITLE=Grateful Dead - 95-06-04 Shoreline Amphitheatre, Mountain View CA
DYEAR=1900
DGENRE=
TTITLE0=Space > I Need A Miracle
TTITLE1=Days Between
TTITLE2=Not Fade Away
TTITLE3=Brokedown Palace
EXTD=
EXTT0=
EXTT1=
EXTT2=
EXTT3=
PLAYORDER=
